<?xml version="1.0" encoding="utf-8"?>
<!-- Generator: Adobe Illustrator 16.0.0, SVG Export Plug-In . SVG Version: 6.00 Build 0)  -->
<!DOCTYPE svg PUBLIC "-//W3C//DTD SVG 1.1//EN" "http://www.w3.org/Graphics/SVG/1.1/DTD/svg11.dtd">
<svg version="1.1" id="Layer_1" xmlns="http://www.w3.org/2000/svg" xmlns:xlink="http://www.w3.org/1999/xlink" x="0px" y="0px"
	 width="135.004px" height="135.004px" viewBox="0 0 135.004 135.004" enable-background="new 0 0 135.004 135.004"
	 xml:space="preserve">
<g>
	<defs>
		<rect id="SVGID_1_" width="135.004" height="135.004"/>
	</defs>
	<clipPath id="SVGID_2_">
		<use xlink:href="#SVGID_1_"  overflow="visible"/>
	</clipPath>
	
		<circle clip-path="url(#SVGID_2_)" fill="none" stroke="#ffffff" stroke-width="5" stroke-miterlimit="10" cx="67.502" cy="67.502" r="65.002"/>
	<path clip-path="url(#SVGID_2_)" fill="#ffffff" d="M60.396,91.832h-1.191l-0.493,3.845h1.192c1.191,0,1.349-1.764,1.349-2.7
		C61.252,92.149,60.967,91.832,60.396,91.832"/>
	<path clip-path="url(#SVGID_2_)" fill="#ffffff" d="M73.133,91.688c-0.891,0-1.352,0.524-1.525,1.827l-0.587,4.337
		c-0.033,0.206-0.033,0.381-0.033,0.54c0,0.921,0.366,1.302,1.128,1.302c0.874,0,1.334-0.523,1.51-1.842l0.571-4.21
		c0.032-0.206,0.047-0.492,0.047-0.65C74.243,92.07,73.896,91.688,73.133,91.688"/>
	<path clip-path="url(#SVGID_2_)" fill="#ffffff" d="M65.583,71.473c0-0.763-0.286-1.017-0.922-1.017H63.63l-0.429,3.399h1.017
		C65.091,73.855,65.583,73.157,65.583,71.473"/>
	<path clip-path="url(#SVGID_2_)" fill="#ffffff" d="M80.756,92.849c0-0.763-0.286-1.017-0.921-1.017h-1.032l-0.43,3.399h1.017
		C80.264,95.231,80.756,94.533,80.756,92.849"/>
	<path clip-path="url(#SVGID_2_)" fill="#ffffff" d="M41.618,70.313c-0.89,0-1.351,0.524-1.525,1.827l-0.587,4.337
		c-0.033,0.206-0.033,0.381-0.033,0.54c0,0.921,0.366,1.302,1.128,1.302c0.873,0,1.334-0.523,1.509-1.842l0.572-4.21
		c0.032-0.206,0.047-0.492,0.047-0.65C42.729,70.694,42.381,70.313,41.618,70.313"/>
	<path clip-path="url(#SVGID_2_)" fill="#ffffff" d="M70.252,78.318c0.874,0,1.335-0.522,1.51-1.842l0.571-4.21
		c0.031-0.206,0.048-0.492,0.048-0.651c0-0.921-0.351-1.303-1.112-1.303c-0.889,0-1.35,0.525-1.524,1.827l-0.589,4.337
		c-0.03,0.206-0.03,0.381-0.03,0.54C69.125,77.938,69.489,78.318,70.252,78.318"/>
	<path clip-path="url(#SVGID_2_)" fill="#ffffff" d="M66.812,91.832H65.62l-0.493,3.845h1.192c1.191,0,1.349-1.764,1.349-2.7
		C67.668,92.149,67.383,91.832,66.812,91.832"/>
	<path clip-path="url(#SVGID_2_)" fill="#ffffff" d="M99.404,65.111l-63.108-0.64c-1.284-0.011-2.391,0.901-2.625,2.164
		l-2.597,14.004c-0.3,1.618,0.933,3.114,2.578,3.128l17.886-0.001l1.41,2.054L40.997,85.67c-1.108-0.013-2.066,0.773-2.268,1.863
		l-2.734,14.742c-0.257,1.389,0.799,2.676,2.212,2.692h50.774c1.107,0.014,2.064-0.772,2.267-1.862l2.811-14.11
		c0.258-1.39-0.798-2.676-2.211-2.694l-12.723-0.157l-1.636-2.381l19.241-0.002c1.284,0.012,2.391-0.9,2.625-2.163l2.627-13.358
		C102.282,66.622,101.049,65.126,99.404,65.111 M44.222,72.124l-0.587,4.353c-0.27,1.985-1.335,3.16-3.193,3.16
		c-1.652,0-2.493-0.921-2.493-2.524c0-0.207,0.015-0.414,0.046-0.636l0.588-4.337c0.271-2.001,1.319-3.177,3.177-3.177
		c1.652,0,2.494,0.938,2.494,2.559C44.254,71.711,44.254,71.917,44.222,72.124 M50.115,79.494h-1.033l-2.255-6.782L46,79.494h-1.35
		l1.271-10.388h1.144l2.176,6.527l0.81-6.527h1.334L50.115,79.494z M67.647,76.477l0.588-4.337c0.269-2.001,1.318-3.177,3.177-3.177
		c1.651,0,2.493,0.938,2.493,2.559c0,0.189,0,0.396-0.032,0.603l-0.587,4.353c-0.27,1.985-1.334,3.16-3.192,3.16
		c-1.652,0-2.494-0.921-2.494-2.524C67.6,76.905,67.615,76.698,67.647,76.477 M62.263,69.106H64.9c1.493,0,2.192,0.777,2.192,2.208
		c0,1.953-0.764,3.097-1.748,3.431l1.238,4.749h-1.62l-1.032-4.4h-0.874l-0.54,4.4h-1.524L62.263,69.106z M48.786,97.709
		c0,2.113-1.303,3.304-2.939,3.304c-1.271,0-2.224-0.857-2.304-2.414l1.24-0.381c0.079,1.08,0.603,1.493,1.222,1.493
		c0.779,0,1.287-0.509,1.287-1.604c0-1.939-2.955-2.13-2.955-4.688c0-1.715,1.128-3.08,2.796-3.08c1.399,0,2.097,0.841,2.304,2.145
		l-1.144,0.46c-0.111-0.89-0.524-1.303-1.191-1.303c-0.778,0-1.224,0.556-1.224,1.493C45.878,94.898,48.786,95.12,48.786,97.709
		 M55.409,97.916c-0.254,2.001-1.382,3.097-3.177,3.097c-1.62,0-2.51-0.857-2.51-2.445c0-0.191,0-0.382,0.031-0.587l0.938-7.498
		h1.524l-0.936,7.498c-0.017,0.142-0.033,0.269-0.033,0.396c0,0.905,0.461,1.207,1.144,1.207c0.826,0,1.351-0.428,1.493-1.603
		l0.938-7.498h1.508L55.409,97.916z M54.354,77.127c0-0.222,0.016-0.46,0.048-0.715l0.555-4.082
		c0.271-2.017,1.288-3.383,3.242-3.383c1.397,0,2.302,0.842,2.381,2.318l-1.191,0.366c-0.143-0.953-0.556-1.335-1.223-1.335
		c-1.001,0-1.508,0.667-1.699,2.033l-0.524,3.861c-0.048,0.364-0.064,0.507-0.064,0.65c0,0.969,0.445,1.413,1.255,1.413
		c0.54,0,0.953-0.189,1.35-0.794l0.27-2.017H57.77l0.111-1.112h2.335l-0.619,5.162h-1.239l0.063-0.651
		c-0.508,0.524-1.143,0.794-1.858,0.794C55.18,79.637,54.354,78.795,54.354,77.127 M59.886,96.931h-1.318l-0.477,3.939h-1.524
		l1.27-10.388h2.748c1.414,0,2.16,0.857,2.16,2.462C62.745,95.47,61.603,96.931,59.886,96.931 M66.302,96.931h-1.318l-0.477,3.939
		h-1.524l1.27-10.388h2.748c1.414,0,2.161,0.857,2.161,2.462C69.162,95.47,68.019,96.931,66.302,96.931 M75.737,93.5l-0.587,4.353
		c-0.271,1.985-1.335,3.16-3.194,3.16c-1.65,0-2.493-0.921-2.493-2.524c0-0.207,0.017-0.414,0.048-0.636l0.588-4.337
		c0.271-2.001,1.317-3.176,3.177-3.176c1.652,0,2.494,0.938,2.494,2.558C75.77,93.087,75.77,93.293,75.737,93.5 M83.233,90.482
		h5.241l-0.144,1.414h-1.857l-1.112,8.974h-1.525l1.112-8.974h-1.859L83.233,90.482z M80.073,90.482
		c1.493,0,2.191,0.777,2.191,2.208c0,1.953-0.763,3.097-1.747,3.431l1.238,4.749h-1.619l-1.032-4.4H78.23l-0.54,4.4h-1.526
		l1.272-10.388H80.073z M80.18,76.54c-0.256,2.001-1.383,3.097-3.178,3.097c-1.62,0-2.509-0.856-2.509-2.445
		c0-0.191,0-0.382,0.031-0.587l0.937-7.498h1.525l-0.938,7.498c-0.016,0.142-0.031,0.269-0.031,0.396
		c0,0.905,0.461,1.207,1.144,1.207c0.826,0,1.351-0.428,1.493-1.603l0.937-7.498h1.51L80.18,76.54z M86.802,79.494H85.77
		l-2.256-6.782l-0.825,6.782h-1.352l1.271-10.388h1.143l2.178,6.527l0.81-6.527h1.335L86.802,79.494z M94.934,72.426l-0.524,3.876
		c-0.27,2.001-1.397,3.192-3.225,3.192h-2.779l1.271-10.388h2.779c1.621,0,2.526,0.952,2.526,2.604
		C94.981,71.902,94.965,72.188,94.934,72.426"/>
	<path clip-path="url(#SVGID_2_)" fill="#ffffff" d="M92.313,70.472h-1.271l-0.968,7.688h1.255c0.89,0,1.366-0.508,1.557-1.891
		l0.524-3.796c0.031-0.207,0.047-0.493,0.047-0.65C93.456,70.853,93.075,70.472,92.313,70.472"/>
	<path clip-path="url(#SVGID_2_)" fill="#ffffff" d="M87.936,46.53c2.203,0,4.166-0.093,6.115,0.032
		c1.366,0.087,2.137,0.958,2.134,2.41c-0.007,3.744,0.024,7.488-0.001,11.232c-0.012,1.624-0.939,2.44-2.526,2.521
		c-0.705,0.036-1.422,0.087-2.118,0.003c-2.284-0.278-4.099,0.111-5.031,2.603c-0.532,1.426-1.413,1.117-2.07-0.063
		c-0.375-0.673-0.737-1.354-1.177-2.161c3.87-1.441,4.905-4.39,4.702-8.136C87.818,52.299,87.936,49.612,87.936,46.53"/>
	<path clip-path="url(#SVGID_2_)" fill="#ffffff" d="M47.037,46.541c0,3.066,0.106,5.941-0.027,8.804
		c-0.168,3.646,1.127,6.315,4.686,7.739c-0.163,0.387-0.27,0.713-0.431,1.009c-1.596,2.935-1.804,2.973-3.462,0.036
		c-0.615-1.089-1.328-1.472-2.512-1.401c-1.264,0.076-2.538,0.033-3.807,0c-1.703-0.045-2.596-0.921-2.599-2.651
		c-0.008-3.667-0.032-7.335-0.016-11.002c0.005-1.354,0.607-2.415,2.045-2.504C42.863,46.45,44.826,46.541,47.037,46.541"/>
	<path clip-path="url(#SVGID_2_)" fill="#ffffff" d="M85.37,37.842c-0.019-2.895-1.408-4.235-4.334-4.257
		c-4.519-0.034-9.037-0.009-13.556-0.011c-4.589-0.002-9.179-0.039-13.768,0.011c-2.67,0.03-4.055,1.4-4.074,4.066
		c-0.046,6.353-0.045,12.708,0.004,19.062c0.019,2.471,1.487,3.872,3.997,3.973c1.41,0.056,2.857,0.209,4.229-0.023
		c3.945-0.669,6.631,0.643,7.907,4.533c0.064,0.195,0.214,0.365,0.337,0.537c0.972,1.347,1.867,1.371,2.771-0.002
		c0.698-1.059,1.368-2.15,1.907-3.294c0.612-1.303,1.446-1.86,2.953-1.772c2.392,0.139,4.799,0.058,7.199,0.026
		c3.02-0.041,4.398-1.379,4.42-4.422C85.407,50.127,85.41,43.984,85.37,37.842"/>
	<path clip-path="url(#SVGID_2_)" fill="#FFFFFF" d="M61.752,46.905c0,1.243-1.007,2.25-2.25,2.25s-2.25-1.007-2.25-2.25
		s1.007-2.25,2.25-2.25S61.752,45.662,61.752,46.905"/>
	<path clip-path="url(#SVGID_2_)" fill="#FFFFFF" d="M69.752,46.905c0,1.243-1.007,2.25-2.25,2.25s-2.25-1.007-2.25-2.25
		s1.007-2.25,2.25-2.25S69.752,45.662,69.752,46.905"/>
	<path clip-path="url(#SVGID_2_)" fill="#FFFFFF" d="M77.752,46.905c0,1.243-1.007,2.25-2.25,2.25s-2.25-1.007-2.25-2.25
		s1.007-2.25,2.25-2.25S77.752,45.662,77.752,46.905"/>
	<path clip-path="url(#SVGID_2_)" fill="#FFFFFF" d="M90.301,54.321c0,1.243-1.008,2.25-2.25,2.25c-1.243,0-2.25-1.007-2.25-2.25
		c0-1.243,1.007-2.25,2.25-2.25C89.293,52.071,90.301,53.079,90.301,54.321"/>
	<path clip-path="url(#SVGID_2_)" fill="#FFFFFF" d="M49.085,54.321c0,1.243-1.007,2.25-2.25,2.25c-1.243,0-2.25-1.007-2.25-2.25
		c0-1.243,1.007-2.25,2.25-2.25C48.078,52.071,49.085,53.079,49.085,54.321"/>
</g>
</svg>
