<?xml version="1.0" encoding="utf-8"?>
<!-- Generator: Adobe Illustrator 16.0.0, SVG Export Plug-In . SVG Version: 6.00 Build 0)  -->
<!DOCTYPE svg PUBLIC "-//W3C//DTD SVG 1.1//EN" "http://www.w3.org/Graphics/SVG/1.1/DTD/svg11.dtd">
<svg version="1.1" id="Layer_1" xmlns="http://www.w3.org/2000/svg" xmlns:xlink="http://www.w3.org/1999/xlink" x="0px" y="0px"
	 width="135.004px" height="135.004px" viewBox="0 0 135.004 135.004" enable-background="new 0 0 135.004 135.004"
	 xml:space="preserve">
<g>
	<defs>
		<rect id="SVGID_1_" width="135.004" height="135.004"/>
	</defs>
	<clipPath id="SVGID_2_">
		<use xlink:href="#SVGID_1_"  overflow="visible"/>
	</clipPath>
	
		<circle clip-path="url(#SVGID_2_)" fill="none" stroke="#ffffff" stroke-width="5" stroke-miterlimit="10" cx="67.502" cy="67.502" r="65.002"/>
	<path clip-path="url(#SVGID_2_)" fill="#ffffff" d="M68.493,66.442c-0.39-0.806-0.747-1.535-1.096-2.269
		c-1.822-3.85-3.662-7.693-5.458-11.555c-2.051-4.412,0.985-9.296,5.59-9.901c4.425-0.581,8.302,2.893,8.166,7.334
		c-0.026,0.891-0.254,1.739-0.633,2.542c-1.928,4.084-3.863,8.164-5.797,12.245C69.022,65.352,68.772,65.862,68.493,66.442
		 M64.566,49.829c0.045,2.387,1.735,3.959,4.198,3.908c1.936-0.041,3.724-1.904,3.666-3.87c-0.079-2.655-1.732-3.968-4.021-4.038
		C66.2,45.761,64.524,47.59,64.566,49.829"/>
	<path clip-path="url(#SVGID_2_)" fill="#ffffff" d="M96.345,50.561c-1.104-2.272-2.221-4.496-3.271-6.751
		c-0.697-1.497-0.316-2.937,0.951-4.02c1.323-1.129,2.771-1.269,4.188-0.403c1.655,1.013,2.281,2.706,1.488,4.445
		c-1.023,2.24-2.162,4.428-3.252,6.637C96.438,50.489,96.413,50.502,96.345,50.561 M96.413,40.338
		c-1.332,0.007-2.177,0.842-2.163,2.142c0.013,1.333,0.83,2.133,2.165,2.136c1.542,0.003,2.093-1.154,2.159-2.238
		C98.64,41.301,97.57,40.332,96.413,40.338"/>
	<path clip-path="url(#SVGID_2_)" fill="#ffffff" d="M73.789,59.301c0.539-1.169,1.042-2.28,1.573-3.376
		c0.045-0.094,0.281-0.145,0.424-0.136c1.22,0.078,2.438,0.167,3.656,0.269c0.303,0.025,0.526-0.055,0.757-0.259
		c2.024-1.789,4.063-3.563,6.088-5.352c0.257-0.228,0.499-0.312,0.849-0.286c2.437,0.177,4.877,0.326,7.318,0.531
		c-0.679,0.05-1.356,0.104-2.034,0.148c-1.659,0.109-3.318,0.204-4.977,0.33c-0.202,0.016-0.445,0.14-0.581,0.293
		c-1.961,2.215-3.904,4.446-5.861,6.665c-0.108,0.122-0.294,0.222-0.456,0.245c-2.104,0.3-4.21,0.583-6.315,0.87
		C74.109,59.26,73.989,59.274,73.789,59.301"/>
	<path clip-path="url(#SVGID_2_)" fill="#ffffff" d="M68.468,34.056c-0.698-1.434-1.401-2.839-2.066-4.263
		c-0.441-0.946-0.2-1.855,0.601-2.539c0.835-0.713,1.75-0.801,2.645-0.254c1.045,0.639,1.44,1.708,0.939,2.806
		c-0.646,1.415-1.365,2.797-2.054,4.193C68.527,34.011,68.511,34.02,68.468,34.056 M68.511,27.6
		c-0.842,0.004-1.374,0.532-1.366,1.353c0.009,0.841,0.524,1.347,1.367,1.349c0.975,0.002,1.322-0.729,1.364-1.414
		C69.917,28.208,69.242,27.596,68.511,27.6"/>
	<path clip-path="url(#SVGID_2_)" fill="#ffffff" d="M72.215,29.682c0.539,1.169-1.316,2.28-0.785,3.376
		c0.046,0.094,0.281,0.145,0.423,0.136c1.221-0.078,4.798-0.167,6.017-0.269c0.302-0.025,0.525,0.055,0.757,0.259
		c2.023,1.789,4.063,3.563,6.087,5.352c0.257,0.228,0.499,0.312,0.849,0.286c2.438-0.177,4.877-0.326,7.318-0.531
		c-0.678-0.05-1.356-0.104-2.034-0.148c-1.659-0.109-3.318-0.204-4.976-0.33c-0.202-0.016-0.446-0.14-0.581-0.293
		c-1.961-2.215-3.905-4.446-5.862-6.665c-0.108-0.122-0.294-0.222-0.456-0.245c-2.104-0.3-4.21-0.583-6.314-0.87
		C72.536,29.723,72.416,29.708,72.215,29.682"/>
	<path clip-path="url(#SVGID_2_)" fill="#ffffff" d="M40.557,50.469c-1.09-2.209-2.229-4.397-3.252-6.637
		c-0.793-1.739-0.166-3.432,1.489-4.445c1.415-0.866,2.864-0.726,4.186,0.403c1.268,1.083,1.649,2.523,0.952,4.02
		c-1.051,2.255-2.167,4.479-3.272,6.751C40.592,50.502,40.567,50.489,40.557,50.469 M38.431,42.378
		c0.066,1.084,0.617,2.241,2.159,2.238c1.335-0.003,2.152-0.804,2.165-2.136c0.013-1.3-0.83-2.135-2.163-2.142
		C39.434,40.332,38.365,41.301,38.431,42.378"/>
	<path clip-path="url(#SVGID_2_)" fill="#ffffff" d="M63.216,59.301c-0.539-1.169-1.042-2.28-1.574-3.376
		c-0.045-0.094-0.281-0.145-0.423-0.136c-1.22,0.078-2.439,0.167-3.657,0.269c-0.302,0.025-0.526-0.055-0.757-0.259
		c-2.024-1.789-4.063-3.563-6.087-5.352c-0.257-0.228-0.499-0.312-0.849-0.286c-2.437,0.177-4.877,0.326-7.318,0.531
		c0.678,0.05,1.356,0.104,2.034,0.148c1.659,0.109,3.318,0.204,4.976,0.33c0.202,0.016,0.446,0.14,0.581,0.293
		c1.961,2.215,3.905,4.446,5.862,6.665c0.108,0.122,0.294,0.222,0.456,0.245c2.104,0.3,4.21,0.583,6.315,0.87
		C62.896,59.26,63.016,59.274,63.216,59.301"/>
	<path clip-path="url(#SVGID_2_)" fill="#ffffff" d="M64.791,29.682c-0.539,1.169,1.316,2.28,0.785,3.376
		c-0.046,0.094-0.281,0.145-0.423,0.136c-1.22-0.078-4.798-0.167-6.016-0.269c-0.302-0.025-0.526,0.055-0.757,0.259
		c-2.024,1.789-4.063,3.563-6.087,5.352c-0.257,0.228-0.499,0.312-0.849,0.286c-2.437-0.177-4.877-0.326-7.318-0.531
		c0.678-0.05,1.356-0.104,2.034-0.148c1.659-0.109,3.318-0.204,4.976-0.33c0.202-0.016,0.446-0.14,0.581-0.293
		c1.961-2.215,3.905-4.446,5.862-6.665c0.108-0.122,0.294-0.222,0.456-0.245c2.104-0.3,4.21-0.583,6.315-0.87
		C64.469,29.723,64.589,29.708,64.791,29.682"/>
	<path clip-path="url(#SVGID_2_)" fill="#ffffff" d="M89.432,70.313c-0.889,0-1.35,0.524-1.524,1.827l-0.588,4.337
		c-0.031,0.206-0.031,0.381-0.031,0.54c0,0.921,0.365,1.302,1.127,1.302c0.874,0,1.335-0.523,1.51-1.842l0.571-4.21
		c0.032-0.206,0.048-0.492,0.048-0.65C90.544,70.694,90.194,70.313,89.432,70.313"/>
	<path clip-path="url(#SVGID_2_)" fill="#ffffff" d="M73.2,91.832h-1.032l-0.43,3.399h1.017c0.874,0,1.366-0.699,1.366-2.382
		C74.121,92.086,73.835,91.832,73.2,91.832"/>
	<path clip-path="url(#SVGID_2_)" fill="#ffffff" d="M61.082,91.832h-1.19l-0.494,3.845h1.192c1.191,0,1.35-1.764,1.35-2.7
		C61.94,92.149,61.654,91.832,61.082,91.832"/>
	<polygon clip-path="url(#SVGID_2_)" fill="#ffffff" points="72.231,75.793 74.297,75.793 73.884,70.631 	"/>
	<path clip-path="url(#SVGID_2_)" fill="#ffffff" d="M104.381,65.111l-71.113-0.64c-1.284-0.012-2.391,0.901-2.625,2.163
		L28.046,80.64c-0.3,1.617,0.933,3.112,2.577,3.128l21.889-0.002l1.411,2.053L41.971,85.67c-1.108-0.014-2.066,0.773-2.268,1.863
		l-2.733,14.741c-0.258,1.39,0.798,2.676,2.211,2.694l50.774-0.001c1.107,0.014,2.065-0.772,2.268-1.862l2.811-14.111
		c0.257-1.389-0.8-2.675-2.213-2.692l-12.722-0.158l-1.636-2.38l23.244-0.002c1.284,0.011,2.391-0.901,2.625-2.164l2.627-13.358
		C107.259,66.623,106.025,65.126,104.381,65.111 M64.403,69.105h1.143l2.176,6.529l0.812-6.529h1.334l-1.271,10.389h-1.032
		l-2.256-6.781l-0.826,6.781h-1.351L64.403,69.105z M62.656,69.105l-1.271,10.389H59.86l1.27-10.389H62.656z M54.779,69.105h5.241
		l-0.143,1.414h-1.858l-1.112,8.975h-1.525l1.111-8.975h-1.858L54.779,69.105z M42.137,72.427l-0.524,3.876
		c-0.27,2.001-1.398,3.191-3.225,3.191h-2.779l1.27-10.389h2.78c1.621,0,2.526,0.953,2.526,2.605
		C42.185,71.901,42.169,72.188,42.137,72.427 M47.362,79.494h-4.749l1.27-10.389h4.591l-0.159,1.399h-3.066l-0.381,3.002h2.383
		l-0.128,1.222h-2.414l-0.428,3.384h3.224L47.362,79.494z M53.429,76.333c0,2.112-1.303,3.305-2.938,3.305
		c-1.272,0-2.224-0.858-2.304-2.414l1.239-0.381c0.079,1.08,0.604,1.492,1.223,1.492c0.778,0,1.287-0.509,1.287-1.604
		c0-1.938-2.955-2.129-2.955-4.687c0-1.715,1.128-3.08,2.796-3.08c1.398,0,2.096,0.842,2.303,2.144l-1.143,0.46
		c-0.112-0.888-0.525-1.302-1.192-1.302c-0.778,0-1.223,0.556-1.223,1.494C50.522,73.521,53.429,73.744,53.429,76.333
		 M49.553,100.87h-4.75l1.272-10.388h4.589l-0.158,1.398h-3.065l-0.382,3.002h2.383l-0.127,1.222h-2.414l-0.43,3.384h3.225
		L49.553,100.87z M54.666,100.87l-1.016-4.226l-2.001,4.226H50.06l2.78-5.289l-1.462-5.099h1.637l0.905,4.146l1.954-4.146h1.604
		l-2.7,5.194l1.508,5.193H54.666z M60.575,96.932h-1.319l-0.476,3.938h-1.526l1.272-10.388h2.748c1.413,0,2.16,0.858,2.16,2.461
		C63.434,95.471,62.29,96.932,60.575,96.932 M68.31,94.883l-0.128,1.222h-2.414l-0.429,3.384h3.225l-0.144,1.382h-4.749
		l1.271-10.388h4.591l-0.16,1.398h-3.065l-0.381,3.002H68.31z M75.122,100.87h-1.62l-1.032-4.399h-0.874l-0.54,4.399h-1.524
		l1.271-10.388h2.637c1.493,0,2.191,0.778,2.191,2.207c0,1.954-0.762,3.098-1.747,3.432L75.122,100.87z M74.583,79.494l-0.19-2.51
		h-2.542l-0.81,2.51h-1.525l3.686-10.389h1.778l1.145,10.389H74.583z M84.825,90.34c1.398,0,2.097,0.842,2.304,2.144l-1.144,0.46
		c-0.111-0.888-0.524-1.302-1.191-1.302c-0.778,0-1.224,0.556-1.224,1.494c0,1.762,2.907,1.984,2.907,4.573
		c0,2.112-1.303,3.305-2.938,3.305c-1.271,0-2.224-0.858-2.304-2.415l1.239-0.38c0.079,1.08,0.604,1.492,1.224,1.492
		c0.777,0,1.286-0.509,1.286-1.604c0-1.938-2.954-2.129-2.954-4.687C82.03,91.705,83.158,90.34,84.825,90.34 M81.841,90.482
		l-0.143,1.413h-1.859l-1.111,8.975h-1.525l1.112-8.975h-1.858l0.143-1.413H81.841z M79.475,79.494H77.95l1.111-8.975h-1.858
		l0.143-1.414h5.242l-0.144,1.414h-1.858L79.475,79.494z M83.953,79.494h-1.525l1.271-10.389h1.524L83.953,79.494z M92.037,72.124
		l-0.587,4.353c-0.271,1.986-1.334,3.161-3.193,3.161c-1.652,0-2.494-0.921-2.494-2.526c0-0.206,0.016-0.413,0.048-0.635
		l0.588-4.336c0.27-2.001,1.318-3.177,3.177-3.177c1.651,0,2.493,0.937,2.493,2.557C92.068,71.711,92.068,71.917,92.037,72.124
		 M97.929,79.494h-1.032l-2.256-6.781l-0.825,6.781h-1.351l1.271-10.389h1.144l2.177,6.529l0.811-6.529H99.2L97.929,79.494z"/>
	<path clip-path="url(#SVGID_2_)" fill="#ffffff" d="M39.516,70.472h-1.271l-0.968,7.688h1.255c0.889,0,1.366-0.508,1.556-1.891
		l0.525-3.796c0.031-0.207,0.047-0.493,0.047-0.65C40.66,70.853,40.279,70.472,39.516,70.472"/>
</g>
</svg>
