<?xml version="1.0" encoding="utf-8"?>
<!-- Generator: Adobe Illustrator 16.0.0, SVG Export Plug-In . SVG Version: 6.00 Build 0)  -->
<!DOCTYPE svg PUBLIC "-//W3C//DTD SVG 1.1//EN" "http://www.w3.org/Graphics/SVG/1.1/DTD/svg11.dtd">
<svg version="1.1" id="Layer_1" xmlns="http://www.w3.org/2000/svg" xmlns:xlink="http://www.w3.org/1999/xlink" x="0px" y="0px"
	 width="135.004px" height="135.004px" viewBox="0 0 135.004 135.004" enable-background="new 0 0 135.004 135.004"
	 xml:space="preserve">
<g>
	<defs>
		<rect id="SVGID_1_" width="135.004" height="135.004"/>
	</defs>
	<clipPath id="SVGID_2_">
		<use xlink:href="#SVGID_1_"  overflow="visible"/>
	</clipPath>
	
		<circle clip-path="url(#SVGID_2_)" fill="none" stroke="#ffffff" stroke-width="5" stroke-miterlimit="10" cx="67.502" cy="67.502" r="65.002"/>
	<path clip-path="url(#SVGID_2_)" fill="#ffffff" d="M75.747,39.318c0,0.598,0.019,1.197-0.005,1.794
		c-0.021,0.547,0.025,0.97,0.685,1.17c0.577,0.175,0.783,0.76,0.905,1.311c0.407,1.831-0.67,3.8-2.44,4.451
		c-0.26,0.095-0.466,0.187-0.543,0.465c-0.514,1.831-1.579,3.531-1.346,5.538c0.096,0.816-0.131,1.325-0.967,1.673
		c-1.564,0.653-3.068,2.009-4.604,2.02c-1.485,0.011-2.961-1.347-4.48-2.015c-0.734-0.322-1.058-0.726-0.958-1.532
		c0.254-2.048-0.839-3.786-1.357-5.657c-0.09-0.321-0.336-0.422-0.649-0.522c-1.804-0.573-2.942-3.135-2.193-4.888
		c0.082-0.193,0.178-0.477,0.332-0.528c1.46-0.49,1.071-1.695,1.09-2.737c0.017-0.939-0.052-1.884,0.027-2.817
		c0.335-3.933,3.155-6.307,7.687-6.455c2.153-0.071,4.202,0.232,5.551,2.213c0.195,0.289,0.468,0.352,0.76,0.398
		c1.598,0.25,2.169,1.393,2.345,2.797c0.139,1.097,0.147,2.211,0.213,3.318C75.782,39.316,75.766,39.317,75.747,39.318"/>
	<path clip-path="url(#SVGID_2_)" fill="#ffffff" d="M56.569,38.09c0.165,1.281-0.027,2.316-0.841,3.37
		c-1.049,1.358-0.98,3.076-0.492,4.67c0.361,1.178-0.061,2.279-0.074,3.414c-0.007,0.556-0.688,0.705-1.099,0.98
		c-0.986,0.659-1.994,1.748-3.01,1.767c-0.955,0.018-1.911-1.147-2.904-1.727c-0.791-0.464-1.146-1.008-1.247-1.998
		c-0.125-1.214-0.167-2.517-1.544-3.377c-1.119-0.698-1.036-2.633-0.062-3.614c0.309-0.311,0.266-0.59,0.274-0.904
		c0.028-1.024-0.034-2.055,0.057-3.072c0.167-1.856,1.075-3.27,2.888-3.853c2.036-0.654,4.097-0.919,5.928,0.629
		c0.128,0.108,0.213,0.341,0.343,0.362C56.907,35.081,56.729,36.634,56.569,38.09"/>
	<path clip-path="url(#SVGID_2_)" fill="#ffffff" d="M91.116,48.496c-0.823-1.603-0.964-3.349-0.919-5.116
		c0.042-1.711,0.079-3.421-0.229-5.113c-0.346-1.89-1.104-3.554-2.972-4.364c-2.053-0.889-4.185-0.883-6.235-0.001
		c-2.454,1.056-3.394,4.945-1.775,7.089c0.668,0.885,0.988,1.876,1.023,2.977c0.07,2.249-0.766,4.154-2.286,5.812
		c1.09,0.75,2.425,0.961,2.936,2.386c0.022,0.063,0.046,0.126,0.069,0.188c0.263,0.685,0.704,1.288,1.278,1.744
		c0.649,0.516,1.286,1.03,1.923,1.018c0.38-0.007,0.759-0.164,1.135-0.391c0.665-0.402,1.188-1.002,1.555-1.687
		c0.882-1.646,2.066-3.011,4.122-3.585C91.229,49.315,91.394,49.038,91.116,48.496"/>
	<path clip-path="url(#SVGID_2_)" fill="#ffffff" d="M45.997,60.916c0.458-1.176,1.233-1.906,2.398-2.376
		c-0.501-2.077-1-4.154-1.485-6.234c-0.118-0.504-0.218-0.741-0.81-0.531c-2.447,0.869-4.918,1.665-7.34,2.609
		c-0.851,0.332-1.412,0.853-1.742,1.701c-1.163,2.985-1.763,6.083-1.961,9.271c-0.032,0.522,0.131,0.677,0.65,0.676
		c2.898-0.003,5.795-0.003,8.693-0.005C44.816,64.3,45.343,62.595,45.997,60.916"/>
	<path clip-path="url(#SVGID_2_)" fill="#ffffff" d="M50.671,56.87c-0.294,0.34-0.523,0.697-0.699,1.068
		c0.819-0.305,1.64-0.601,2.464-0.891c-0.425-0.551-0.297-0.974,0.255-1.348c0.812-0.552,0.673-1.003-0.009-1.621
		c-1.222-1.107-1.183-1.15-2.337,0.005c-0.818,0.818-0.82,0.819,0.036,1.678C50.695,56.077,51.128,56.343,50.671,56.87"/>
	<path clip-path="url(#SVGID_2_)" fill="#ffffff" d="M59.498,53.534c-0.155-0.6-0.616-1.073-1.202-1.273
		c-0.485-0.166-0.97-0.333-1.454-0.501c-0.469-0.163-0.609-0.055-0.718,0.425c-0.293,1.301-0.598,2.6-0.91,3.898
		c1.206-0.415,2.413-0.83,3.615-1.257l0.014-0.005c0.504-0.177,0.801-0.709,0.67-1.227C59.508,53.574,59.503,53.554,59.498,53.534"
		/>
	<path clip-path="url(#SVGID_2_)" fill="#ffffff" d="M89.069,60.916c-0.458-1.176-1.233-1.906-2.397-2.376
		c0.501-2.077,1-4.154,1.484-6.234c0.118-0.504,0.218-0.741,0.811-0.531c2.446,0.869,4.918,1.665,7.34,2.609
		c0.851,0.332,1.412,0.853,1.742,1.701c1.162,2.985,1.763,6.083,1.961,9.271c0.031,0.522-0.132,0.677-0.65,0.676
		c-2.898-0.003-5.795-0.003-8.693-0.005C90.249,64.3,89.724,62.595,89.069,60.916"/>
	<path clip-path="url(#SVGID_2_)" fill="#ffffff" d="M75.568,53.534c0.154-0.6,0.616-1.073,1.202-1.273
		c0.484-0.166,0.97-0.333,1.453-0.501c0.47-0.163,0.609-0.055,0.719,0.425c0.293,1.301,0.598,2.6,0.91,3.898
		c-1.206-0.415-2.413-0.83-3.615-1.257l-0.015-0.005c-0.504-0.177-0.801-0.709-0.67-1.227
		C75.558,53.574,75.563,53.554,75.568,53.534"/>
	<path clip-path="url(#SVGID_2_)" fill="#ffffff" d="M89.103,66.442c-0.337-1.181-0.727-2.351-1.188-3.506
		c-0.417-1.042-1.074-1.779-2.155-2.208c-3.532-1.4-7.143-2.572-10.729-3.818c-0.662-0.23-0.86-0.078-1.014,0.6
		c-0.673,2.986-1.382,5.963-2.125,8.932H89.103z"/>
	<path clip-path="url(#SVGID_2_)" fill="#ffffff" d="M66.313,64.129c-0.624,0.72-1.037,1.497-1.303,2.312h4.965
		c-0.239-0.7-0.6-1.363-1.111-1.982c-0.678-0.819-0.503-1.438,0.303-1.985c1.147-0.779,0.95-1.417-0.013-2.289
		c-1.726-1.564-1.671-1.625-3.302,0.006c-1.156,1.156-1.158,1.158,0.052,2.372C66.346,63.008,66.958,63.384,66.313,64.129"/>
	<path clip-path="url(#SVGID_2_)" fill="#ffffff" d="M63.086,66.442c-0.704-2.918-1.406-5.837-2.088-8.761
		c-0.166-0.712-0.307-1.046-1.143-0.749c-3.457,1.227-6.949,2.352-10.37,3.685c-1.203,0.469-1.995,1.206-2.462,2.404
		c-0.44,1.129-0.818,2.27-1.148,3.421H63.086z"/>
	<path clip-path="url(#SVGID_2_)" fill="#ffffff" d="M60.75,91.832h-1.191l-0.493,3.845h1.192c1.191,0,1.35-1.764,1.35-2.7
		C61.607,92.149,61.321,91.832,60.75,91.832"/>
	<path clip-path="url(#SVGID_2_)" fill="#ffffff" d="M72.867,91.832h-1.032l-0.429,3.399h1.016c0.874,0,1.366-0.699,1.366-2.382
		C73.788,92.086,73.502,91.832,72.867,91.832"/>
	<path clip-path="url(#SVGID_2_)" fill="#ffffff" d="M89.099,70.313c-0.889,0-1.35,0.524-1.524,1.827l-0.587,4.337
		c-0.032,0.206-0.032,0.381-0.032,0.54c0,0.921,0.365,1.302,1.127,1.302c0.874,0,1.335-0.523,1.51-1.842l0.571-4.21
		c0.032-0.206,0.048-0.492,0.048-0.65C90.211,70.694,89.862,70.313,89.099,70.313"/>
	<polygon clip-path="url(#SVGID_2_)" fill="#ffffff" points="71.898,75.793 73.964,75.793 73.551,70.631 	"/>
	<path clip-path="url(#SVGID_2_)" fill="#ffffff" d="M39.183,70.472h-1.271l-0.969,7.688h1.255c0.89,0,1.366-0.508,1.557-1.891
		l0.524-3.796c0.032-0.207,0.048-0.493,0.048-0.65C40.327,70.853,39.946,70.472,39.183,70.472"/>
	<path clip-path="url(#SVGID_2_)" fill="#ffffff" d="M104.048,65.111l-71.113-0.64c-1.284-0.012-2.392,0.901-2.626,2.163
		L27.712,80.64c-0.3,1.617,0.933,3.112,2.578,3.128l21.889-0.002l1.411,2.053L41.638,85.67c-1.108-0.014-2.066,0.773-2.268,1.863
		l-2.734,14.741c-0.257,1.39,0.799,2.676,2.212,2.694l50.774-0.001c1.107,0.014,2.064-0.772,2.268-1.862L94.7,88.994
		c0.257-1.389-0.799-2.675-2.212-2.692l-12.723-0.158l-1.636-2.38l23.244-0.002c1.284,0.011,2.391-0.901,2.625-2.164l2.626-13.358
		C106.925,66.623,105.693,65.126,104.048,65.111 M64.069,69.105h1.144l2.176,6.529l0.811-6.529h1.335l-1.271,10.389h-1.033
		l-2.255-6.781l-0.825,6.781h-1.351L64.069,69.105z M62.322,69.105l-1.27,10.389h-1.525l1.27-10.389H62.322z M54.445,69.105h5.242
		l-0.143,1.414h-1.859l-1.111,8.975h-1.525l1.111-8.975h-1.858L54.445,69.105z M41.804,72.427l-0.524,3.876
		c-0.27,2.001-1.398,3.191-3.225,3.191h-2.78l1.271-10.389h2.78c1.62,0,2.525,0.953,2.525,2.605
		C41.851,71.901,41.836,72.188,41.804,72.427 M47.029,79.494h-4.75l1.271-10.389h4.59l-0.158,1.399h-3.066l-0.381,3.002h2.383
		l-0.128,1.222h-2.414l-0.429,3.384h3.225L47.029,79.494z M53.096,76.333c0,2.112-1.303,3.305-2.939,3.305
		c-1.271,0-2.224-0.858-2.303-2.414l1.239-0.381c0.079,1.08,0.603,1.492,1.223,1.492c0.778,0,1.286-0.509,1.286-1.604
		c0-1.938-2.954-2.129-2.954-4.687c0-1.715,1.128-3.08,2.796-3.08c1.398,0,2.096,0.842,2.303,2.144l-1.144,0.46
		c-0.111-0.888-0.524-1.302-1.191-1.302c-0.778,0-1.223,0.556-1.223,1.494C50.189,73.521,53.096,73.744,53.096,76.333 M49.22,100.87
		h-4.75l1.271-10.388h4.59l-0.158,1.398h-3.066l-0.381,3.002h2.383l-0.128,1.222h-2.414l-0.429,3.384h3.225L49.22,100.87z
		 M54.333,100.87l-1.016-4.226l-2.002,4.226h-1.588l2.78-5.289l-1.462-5.099h1.636l0.906,4.146l1.954-4.146h1.604l-2.7,5.194
		l1.508,5.193H54.333z M60.241,96.932h-1.318l-0.477,3.938h-1.525l1.271-10.388h2.748c1.414,0,2.16,0.858,2.16,2.461
		C63.1,95.471,61.957,96.932,60.241,96.932 M67.976,94.883l-0.127,1.222h-2.414l-0.429,3.384h3.224l-0.143,1.382h-4.749
		l1.271-10.388h4.59l-0.159,1.398h-3.065l-0.381,3.002H67.976z M74.789,100.87h-1.62l-1.032-4.399h-0.874l-0.541,4.399h-1.523
		l1.271-10.388h2.636c1.493,0,2.192,0.778,2.192,2.207c0,1.954-0.762,3.098-1.747,3.432L74.789,100.87z M74.25,79.494l-0.191-2.51
		h-2.541l-0.81,2.51h-1.525l3.686-10.389h1.778l1.145,10.389H74.25z M84.492,90.34c1.397,0,2.097,0.842,2.304,2.144l-1.144,0.46
		c-0.111-0.888-0.524-1.302-1.191-1.302c-0.779,0-1.223,0.556-1.223,1.494c0,1.762,2.905,1.984,2.905,4.573
		c0,2.112-1.302,3.305-2.938,3.305c-1.271,0-2.225-0.858-2.303-2.415l1.237-0.38c0.08,1.08,0.604,1.492,1.225,1.492
		c0.777,0,1.286-0.509,1.286-1.604c0-1.938-2.954-2.129-2.954-4.687C81.697,91.705,82.825,90.34,84.492,90.34 M81.508,90.482
		l-0.143,1.413h-1.859l-1.112,8.975h-1.524l1.111-8.975h-1.857l0.143-1.413H81.508z M79.141,79.494h-1.523l1.11-8.975H76.87
		l0.143-1.414h5.242l-0.143,1.414h-1.859L79.141,79.494z M83.62,79.494h-1.525l1.271-10.389h1.523L83.62,79.494z M91.704,72.124
		l-0.587,4.353c-0.271,1.986-1.335,3.161-3.193,3.161c-1.652,0-2.494-0.921-2.494-2.526c0-0.206,0.017-0.413,0.047-0.635
		l0.588-4.336c0.271-2.001,1.319-3.177,3.178-3.177c1.651,0,2.494,0.937,2.494,2.557C91.736,71.711,91.736,71.917,91.704,72.124
		 M97.596,79.494h-1.032l-2.256-6.781l-0.826,6.781h-1.35l1.271-10.389h1.143l2.176,6.529l0.812-6.529h1.334L97.596,79.494z"/>
</g>
</svg>
