<?xml version="1.0" encoding="utf-8"?>
<!-- Generator: Adobe Illustrator 16.0.0, SVG Export Plug-In . SVG Version: 6.00 Build 0)  -->
<!DOCTYPE svg PUBLIC "-//W3C//DTD SVG 1.1//EN" "http://www.w3.org/Graphics/SVG/1.1/DTD/svg11.dtd">
<svg version="1.1" id="Layer_1" xmlns="http://www.w3.org/2000/svg" xmlns:xlink="http://www.w3.org/1999/xlink" x="0px" y="0px"
	 width="135.004px" height="135.004px" viewBox="0 0 135.004 135.004" enable-background="new 0 0 135.004 135.004"
	 xml:space="preserve">
<g>
	<defs>
		<rect id="SVGID_1_" width="135.004" height="135.004"/>
	</defs>
	<clipPath id="SVGID_2_">
		<use xlink:href="#SVGID_1_"  overflow="visible"/>
	</clipPath>
	
		<circle clip-path="url(#SVGID_2_)" fill="none" stroke="#ffffff" stroke-width="5" stroke-miterlimit="10" cx="67.502" cy="67.502" r="65.002"/>
	<path clip-path="url(#SVGID_2_)" fill="#ffffff" d="M76.491,18.314c3.069,0.007,5.487,2.444,5.475,5.517
		c-0.012,3.019-2.48,5.476-5.483,5.459c-3.089-0.017-5.499-2.43-5.496-5.5C70.988,20.711,73.406,18.307,76.491,18.314"/>
	<path clip-path="url(#SVGID_2_)" fill="#ffffff" d="M55.645,48.802l-5.201-1.719l-0.001,0.002
		c-0.075-0.031-0.148-0.064-0.223-0.094c-1.903-0.765-2.609-2.254-2.589-4.21c0.019-1.816,0.453-3.511,1.115-5.141
		c0.041-0.092,0.082-0.191,0.122-0.297c0.101-0.239,0.208-0.476,0.319-0.712c1.961-3.845,7.733-7.482,11.037-9.326
		c1.426-0.796,3.138-0.892,4.644-0.257c0.63,0.265,1.248,0.558,1.881,0.857c0.378,0.179,0.478,0.673,0.197,0.984
		c-0.545,0.604-1.078,1.19-1.58,1.801c-4.186,5.113-7.087,10.891-8.896,17.233c-0.093,0.327-2.175,4.915-2.45,5.519
		c-0.018,0.04-0.057,0.065-0.102,0.065h-0.908c-0.082,0-0.136-0.084-0.102-0.158l2.146-4.742"/>
	<path clip-path="url(#SVGID_2_)" fill="#ffffff" d="M69.678,62.449c0.701,0.711,1.137,1.525,1.313,2.505
		c0.153,0.85,0.308,1.699,0.462,2.548h6.386c-0.067-0.941-0.147-1.882-0.208-2.824c-0.143-2.269-0.915-4.208-2.244-6.009
		c-2.081-2.821-4.099-5.688-6.158-8.524c-0.254-0.348-0.315-0.597-0.094-1.015c0.893-1.678,1.729-3.385,2.579-5.085
		c0.305-0.607,0.59-1.222,0.939-1.948c0.22,0.353,0.356,0.594,0.514,0.821c1.02,1.476,1.999,2.983,3.089,4.404
		c0.363,0.473,0.966,0.877,1.54,1.053c2.795,0.856,5.616,1.63,8.435,2.413c0.296,0.082,0.641,0.092,0.943,0.034
		c0.9-0.174,1.544-0.895,1.63-1.751c0.099-0.981-0.33-1.758-1.25-2.165c-2.246-0.993-4.486-2-6.758-2.931
		c-0.999-0.409-1.677-1.057-2.103-2.019c-0.173-0.39-0.391-0.764-0.533-1.164c-0.878-2.451-1.768-4.898-2.596-7.365
		c-0.334-0.994-0.825-1.844-1.707-2.401c-1.046-0.662-2.123-1.276-3.208-1.871c-0.558-0.306-1.186-0.302-1.723,0.03
		c-0.539,0.333-1.106,0.696-1.492,1.181c-0.836,1.05-1.667,2.128-2.316,3.297c-1.742,3.137-3.455,6.293-5.037,9.512
		c-0.678,1.38-1.159,2.904-1.448,4.417c-0.381,1.986,0.053,3.773,1.635,5.308C63.474,56.011,66.54,59.267,69.678,62.449"/>
	<path clip-path="url(#SVGID_2_)" fill="#ffffff" d="M62.798,67.502c0.854-2.209,1.67-4.433,2.508-6.649
		c0.124-0.33,0.05-0.538-0.202-0.774c-0.732-0.687-1.454-1.387-2.15-2.112c-1.167-1.215-2.31-2.454-3.463-3.683
		c-0.087,0.066-0.174,0.131-0.261,0.196c-0.02,0.08-0.041,0.16-0.059,0.24c-0.81,3.513-1.624,7.025-2.427,10.539
		c-0.192,0.84-0.538,1.584-1.051,2.243H62.798z"/>
	<polygon clip-path="url(#SVGID_2_)" fill="#ffffff" points="50.67,97.169 52.735,97.169 52.322,92.007 	"/>
	<path clip-path="url(#SVGID_2_)" fill="#ffffff" d="M39.601,91.688c-0.889,0-1.35,0.524-1.525,1.827l-0.587,4.337
		c-0.032,0.206-0.032,0.381-0.032,0.54c0,0.921,0.365,1.302,1.127,1.302c0.874,0,1.335-0.523,1.51-1.842l0.571-4.21
		c0.032-0.206,0.048-0.492,0.048-0.65C40.713,92.07,40.364,91.688,39.601,91.688"/>
	<path clip-path="url(#SVGID_2_)" fill="#ffffff" d="M85.182,97.646l0.523-3.796c0.032-0.207,0.048-0.493,0.048-0.65
		c0-0.971-0.381-1.352-1.144-1.352h-1.271l-0.97,7.689h1.255C84.515,99.537,84.991,99.027,85.182,97.646"/>
	<path clip-path="url(#SVGID_2_)" fill="#ffffff" d="M62.042,70.456H61.01l-0.429,3.399h1.016c0.874,0,1.366-0.699,1.366-2.382
		C62.962,70.71,62.677,70.456,62.042,70.456"/>
	<path clip-path="url(#SVGID_2_)" fill="#ffffff" d="M97.045,70.472h-1.271l-0.97,7.688h1.255c0.891,0,1.366-0.508,1.558-1.891
		l0.523-3.796c0.032-0.207,0.049-0.493,0.049-0.65C98.189,70.853,97.808,70.472,97.045,70.472"/>
	<path clip-path="url(#SVGID_2_)" fill="#ffffff" d="M106.42,65.111l-75.116-0.64c-1.284-0.011-2.391,0.901-2.625,2.164
		l-2.597,14.004c-0.3,1.618,0.933,3.114,2.577,3.128l23.89-0.002l1.448,2.107L31.002,85.67c-1.109-0.013-2.066,0.773-2.268,1.863
		L26,102.275c-0.258,1.389,0.799,2.676,2.212,2.692h71.787c1.108,0.014,2.065-0.772,2.267-1.862l2.811-14.11
		c0.258-1.39-0.798-2.676-2.211-2.694l-22.758-0.199l-1.606-2.339l25.244-0.002c1.285,0.012,2.391-0.9,2.626-2.163l2.626-13.358
		C109.297,66.622,108.064,65.126,106.42,65.111 M69.617,69.106h4.59l-0.159,1.397h-3.064l-0.381,3.002h2.382l-0.127,1.224h-2.414
		l-0.43,3.384h3.225l-0.144,1.381h-4.749L69.617,69.106z M66.345,69.106h1.525L66.6,79.494h-1.525L66.345,69.106z M38.394,79.494
		h-4.749l1.271-10.388h4.59l-0.159,1.397h-3.065L35.9,73.506h2.383l-0.127,1.224h-2.414l-0.43,3.384h3.225L38.394,79.494z
		 M43.508,79.494l-1.017-4.226l-2.001,4.226h-1.589l2.78-5.289l-1.461-5.099h1.636l0.905,4.146l1.954-4.146h1.604l-2.7,5.193
		l1.509,5.194H43.508z M49.416,75.555h-1.319l-0.476,3.939h-1.525l1.271-10.388h2.748c1.413,0,2.16,0.857,2.16,2.462
		C52.275,74.094,51.131,75.555,49.416,75.555 M52.512,79.494l1.271-10.388h4.591l-0.159,1.397h-3.066l-0.381,3.002h2.383
		l-0.128,1.224h-2.414l-0.429,3.384h3.225l-0.143,1.381H52.512z M35.075,100.87h-4.432l1.271-10.388h1.477l-1.112,8.974h2.938
		L35.075,100.87z M42.206,93.5l-0.588,4.353c-0.27,1.985-1.334,3.16-3.193,3.16c-1.652,0-2.493-0.921-2.493-2.524
		c0-0.207,0.015-0.414,0.047-0.636l0.588-4.337c0.27-2.001,1.318-3.176,3.177-3.176c1.651,0,2.493,0.938,2.493,2.558
		C42.237,93.087,42.237,93.293,42.206,93.5 M44.984,101.013c-1.461,0-2.287-0.969-2.287-2.478c0-0.174,0.016-0.35,0.032-0.524
		l0.604-4.511c0.27-1.97,1.365-3.16,3.001-3.16c1.303,0,2.129,0.952,2.177,2.302l-1.192,0.366c-0.047-0.874-0.381-1.318-1.032-1.318
		c-0.842,0-1.271,0.619-1.43,1.811l-0.619,4.511c-0.016,0.127-0.016,0.254-0.016,0.382c0,0.81,0.334,1.318,1.048,1.318
		c0.683,0,1.064-0.349,1.398-1.414l1.128,0.334C47.319,100.315,46.398,101.013,44.984,101.013 M53.021,100.87l-0.19-2.509h-2.542
		l-0.81,2.509h-1.525l3.685-10.388h1.779l1.144,10.388H53.021z M59.93,100.87h-4.432l1.271-10.388h1.477l-1.112,8.974h2.938
		L59.93,100.87z M61.311,75.094h-0.874l-0.54,4.4h-1.525l1.271-10.388h2.637c1.493,0,2.192,0.777,2.192,2.208
		c0,1.953-0.763,3.097-1.747,3.431l1.238,4.749h-1.62L61.311,75.094z M66.377,99.631c0.54,0,0.953-0.189,1.351-0.794l0.27-2.017
		h-0.985l0.112-1.112h2.334l-0.619,5.162H67.6l0.064-0.651c-0.509,0.524-1.144,0.794-1.859,0.794c-1.382,0-2.208-0.842-2.208-2.51
		c0-0.222,0.016-0.46,0.048-0.715l0.556-4.082c0.27-2.017,1.286-3.382,3.24-3.382c1.397,0,2.304,0.841,2.383,2.317l-1.191,0.366
		c-0.143-0.953-0.556-1.335-1.223-1.335c-1.001,0-1.51,0.667-1.7,2.033l-0.524,3.861c-0.048,0.364-0.064,0.507-0.064,0.65
		C65.122,99.187,65.567,99.631,66.377,99.631 M76.113,97.916c-0.254,2.001-1.382,3.097-3.176,3.097
		c-1.621,0-2.511-0.857-2.511-2.445c0-0.191,0-0.382,0.031-0.587l0.938-7.498h1.524l-0.937,7.498
		c-0.017,0.142-0.031,0.269-0.031,0.396c0,0.905,0.46,1.207,1.143,1.207c0.826,0,1.351-0.428,1.493-1.603l0.938-7.498h1.51
		L76.113,97.916z M96.87,90.34c1.398,0,2.097,0.841,2.303,2.145l-1.143,0.46c-0.112-0.89-0.525-1.303-1.192-1.303
		c-0.777,0-1.223,0.556-1.223,1.493c0,1.764,2.907,1.985,2.907,4.574c0,2.113-1.303,3.304-2.939,3.304
		c-1.271,0-2.223-0.857-2.303-2.414l1.239-0.381c0.079,1.08,0.604,1.493,1.223,1.493c0.778,0,1.287-0.509,1.287-1.604
		c0-1.939-2.955-2.13-2.955-4.688C94.074,91.705,95.202,90.34,96.87,90.34 M88.978,90.482h4.59l-0.159,1.397h-3.065l-0.382,3.002
		h2.383l-0.127,1.224h-2.414l-0.429,3.383h3.224l-0.143,1.382h-4.749L88.978,90.482z M81.973,90.482h2.779
		c1.621,0,2.526,0.952,2.526,2.604c0,0.191-0.017,0.478-0.048,0.715l-0.524,3.876c-0.27,2.001-1.396,3.192-3.225,3.192h-2.779
		L81.973,90.482z M78.701,90.482h1.525l-1.271,10.388h-1.525L78.701,90.482z M79.67,79.494h-1.032l-2.256-6.782l-0.825,6.782h-1.351
		l1.271-10.388h1.144l2.176,6.527l0.811-6.527h1.334L79.67,79.494z M83.911,78.335c0.682,0,1.063-0.349,1.396-1.414l1.129,0.334
		c-0.478,1.685-1.398,2.382-2.813,2.382c-1.461,0-2.287-0.969-2.287-2.478c0-0.174,0.017-0.35,0.032-0.524l0.604-4.511
		c0.271-1.969,1.366-3.161,3.002-3.161c1.303,0,2.129,0.953,2.177,2.303l-1.192,0.366c-0.047-0.874-0.381-1.318-1.032-1.318
		c-0.842,0-1.271,0.619-1.429,1.811l-0.62,4.511c-0.016,0.127-0.016,0.254-0.016,0.382C82.862,77.826,83.196,78.335,83.911,78.335
		 M91.916,73.506l-0.128,1.224h-2.414l-0.429,3.384h3.224l-0.143,1.381h-4.749l1.271-10.388h4.59l-0.158,1.397h-3.065l-0.381,3.002
		H91.916z M99.666,72.426l-0.523,3.876c-0.271,2.001-1.398,3.192-3.226,3.192h-2.78l1.271-10.388h2.78
		c1.619,0,2.524,0.952,2.524,2.604C99.713,71.902,99.698,72.188,99.666,72.426"/>
	<path clip-path="url(#SVGID_2_)" fill="#ffffff" d="M49.924,70.456h-1.191l-0.493,3.845h1.192c1.191,0,1.35-1.764,1.35-2.7
		C50.782,70.773,50.496,70.456,49.924,70.456"/>
	<path clip-path="url(#SVGID_2_)" fill="#ffffff" d="M94.955,36.54c0.18,0.248,0.338,0.501,0.53,0.725
		c0.724,0.844,1.698,1.293,2.721,1.634c1.15,0.384,2.318,0.711,3.474,1.08c0.821,0.262,1.619,0.585,2.328,1.087
		c0.37,0.262,0.457,0.646,0.232,1.045c-0.257,0.455-0.533,0.899-0.81,1.341c-1.074,1.712-2.152,3.422-3.229,5.132
		c-0.271,0.43-0.767,0.476-1.008,0.06c-0.547-0.943-1.38-1.537-2.365-1.903c-1.114-0.414-2.254-0.756-3.387-1.118
		c-1.044-0.333-2.09-0.657-3.028-1.249c-0.563-0.355-0.673-0.77-0.315-1.343c1.306-2.1,2.617-4.197,3.933-6.292
		C94.27,36.359,94.694,36.28,94.955,36.54"/>
	<path clip-path="url(#SVGID_2_)" fill="#ffffff" d="M93.802,35.187c0.237,0.229,0.273,0.584,0.072,0.905
		c-0.604,0.965-1.214,1.926-1.825,2.886c-1.352,2.125-2.705,4.248-4.058,6.372c-0.499,0.782-1,1.563-1.501,2.344
		c-0.23,0.358-0.644,0.426-1.047,0.175c-0.277-0.173-0.354-0.627-0.151-0.944c0.585-0.921,1.173-1.84,1.76-2.761
		c1.231-1.933,2.461-3.867,3.693-5.8c0.636-1,1.27-2.002,1.913-2.998C92.941,34.924,93.456,34.851,93.802,35.187"/>
</g>
</svg>
