<?xml version="1.0" encoding="utf-8"?>
<!-- Generator: Adobe Illustrator 16.0.0, SVG Export Plug-In . SVG Version: 6.00 Build 0)  -->
<!DOCTYPE svg PUBLIC "-//W3C//DTD SVG 1.1//EN" "http://www.w3.org/Graphics/SVG/1.1/DTD/svg11.dtd">
<svg version="1.1" id="Layer_1" xmlns="http://www.w3.org/2000/svg" xmlns:xlink="http://www.w3.org/1999/xlink" x="0px" y="0px"
	 width="497.379px" height="88.764px" viewBox="0 0 497.379 88.764" enable-background="new 0 0 497.379 88.764"
	 xml:space="preserve">
<g>
	<defs>
		<rect id="SVGID_1_" width="497.379" height="88.764"/>
	</defs>
	<clipPath id="SVGID_2_">
		<use xlink:href="#SVGID_1_"  overflow="visible"/>
	</clipPath>
	<path clip-path="url(#SVGID_2_)" fill="#FFFFFF" d="M446.785,19.634c0,6.036,0.018,12.072-0.006,18.108
		c-0.014,3.571-1.216,6.698-3.873,9.126c-1.968,1.798-4.341,2.88-7.002,3.249c-2.368,0.328-4.711,0.313-6.994-0.552
		c-2.663-1.008-4.632-2.854-6.197-5.153c-1.368-2.012-1.964-4.367-2.728-6.639c-2.136-6.348-4.236-12.709-6.408-19.045
		c-0.691-2.021-1.425-4.029-2.018-6.079c-0.229-0.789-0.736-1.198-1.421-1.267c-0.765-0.077-1.514,0.206-1.953,0.918
		c-0.364,0.587-0.494,1.252-0.494,1.95c0.005,11.86-0.005,23.719,0.023,35.578c0.002,0.776-0.191,0.961-0.956,0.949
		c-3.218-0.047-6.436-0.035-9.652-0.006c-0.589,0.005-0.755-0.138-0.754-0.743c0.019-12.498-0.027-24.995,0.048-37.492
		c0.016-2.623,0.951-5.036,2.631-7.149c2.219-2.793,5.201-4.189,8.593-4.693c3.755-0.557,7.207,0.27,10.186,2.797
		c2.274,1.931,3.684,4.328,4.495,7.185c0.683,2.403,1.605,4.737,2.411,7.106c1.4,4.12,2.784,8.247,4.188,12.366
		c0.908,2.664,1.845,5.317,2.652,8.014c0.244,0.818,0.901,1.397,1.566,1.418c0.823,0.026,1.937-0.745,2.141-1.556
		c0.112-0.45,0.205-0.91,0.205-1.395c-0.015-11.913-0.007-23.825-0.025-35.737c-0.001-0.663,0.104-0.905,0.849-0.894
		c3.243,0.049,6.488,0.041,9.732,0.005c0.653-0.008,0.776,0.2,0.774,0.803C446.777,7.083,446.785,13.359,446.785,19.634"/>
	<path clip-path="url(#SVGID_2_)" fill="#FFFFFF" d="M453.486,25.692c0-8.054,0.009-16.108-0.014-24.162
		c-0.003-0.668,0.112-0.894,0.852-0.89c6.804,0.034,13.61-0.048,20.414,0.046c4.043,0.055,8.043,0.595,11.732,2.428
		c4.725,2.348,7.682,6.198,9.29,11.152c0.68,2.092,1.068,4.241,1.297,6.43c0.217,2.077,0.392,4.156,0.295,6.24
		c-0.209,4.486-0.753,8.93-2.737,13.028c-2.576,5.322-6.821,8.625-12.575,10c-2.309,0.553-4.64,0.814-7.018,0.806
		c-6.911-0.029-13.822-0.021-20.733,0.006c-0.682,0.003-0.819-0.194-0.816-0.841C453.494,41.854,453.486,33.772,453.486,25.692
		 M464.336,25.666c0,4.494,0.016,8.987-0.016,13.481c-0.005,0.649,0.195,0.781,0.801,0.776c3.616-0.027,7.232-0.008,10.848-0.017
		c0.948-0.002,1.896,0.057,2.842-0.148c2.523-0.545,4.446-1.872,5.715-4.152c1.512-2.72,1.802-5.718,1.966-8.721
		c0.151-2.763-0.032-5.526-0.782-8.213c-0.535-1.921-1.394-3.693-2.918-5.025c-1.872-1.634-4.186-2.088-6.576-2.123
		c-3.641-0.054-7.284,0.007-10.927-0.032c-0.739-0.008-0.981,0.13-0.974,0.933C464.36,16.838,464.336,21.251,464.336,25.666"/>
	<path clip-path="url(#SVGID_2_)" fill="#FFFFFF" d="M340.474,50.758c1.458-4.077,2.878-8.021,4.279-11.97
		c2.058-5.794,4.097-11.594,6.153-17.388c1.638-4.615,3.247-9.242,4.953-13.832c1.354-3.645,3.952-5.899,7.838-6.597
		c2.834-0.509,5.563-0.29,8.175,0.99c2.318,1.135,3.821,3.007,4.686,5.375c1.694,4.65,3.318,9.326,4.972,13.991
		c1.654,4.665,3.298,9.334,4.963,13.995c1.762,4.931,3.544,9.855,5.315,14.783c0.07,0.196,0.117,0.401,0.188,0.654
		c-3.671,0-7.309-0.011-10.945,0.01c-0.617,0.004-0.646-0.475-0.775-0.82c-0.433-1.145-0.796-2.315-1.206-3.47
		c-1.972-5.548-3.959-11.09-5.926-16.639c-1.897-5.354-3.775-10.713-5.663-16.07c-0.164-0.466-0.321-0.937-0.519-1.391
		c-0.155-0.359-0.364-0.827-0.765-0.813c-0.386,0.015-0.585,0.477-0.755,0.839c-0.011,0.023-0.013,0.051-0.022,0.076
		c-1.439,4.132-2.871,8.268-4.321,12.397c-2.229,6.341-4.465,12.679-6.704,19.017c-0.747,2.113-1.503,4.223-2.277,6.324
		c-0.081,0.222-0.053,0.556-0.516,0.553C347.935,50.748,344.268,50.758,340.474,50.758"/>
	<path clip-path="url(#SVGID_2_)" fill="#FFFFFF" d="M299.04,16.165c0-4.892,0.013-9.784-0.015-14.676
		c-0.004-0.642,0.125-0.856,0.813-0.847c3.083,0.041,6.168,0.041,9.253,0c0.688-0.009,0.813,0.206,0.813,0.847
		c-0.021,9.465-0.1,18.931,0.02,28.395c0.065,5.111,3.153,9.069,8.61,9.89c0.688,0.103,1.363,0.131,2.045,0.132
		c5.158,0.007,10.317,0.012,15.475-0.008c0.578-0.002,0.827,0.082,0.818,0.759c-0.041,3.137-0.033,6.275-0.005,9.412
		c0.005,0.566-0.157,0.704-0.711,0.702c-5.876-0.019-11.758,0.151-17.626-0.064c-4.587-0.169-8.875-1.541-12.527-4.535
		c-3.255-2.67-5.158-6.125-6.17-10.146c-0.572-2.279-0.811-4.591-0.799-6.939C299.056,24.78,299.04,20.472,299.04,16.165"/>
	<path clip-path="url(#SVGID_2_)" fill="#FFFFFF" d="M281.489,25.69c0-8.054,0.009-16.108-0.015-24.162
		c-0.002-0.672,0.118-0.9,0.854-0.889c3.083,0.049,6.167,0.042,9.25,0.004c0.654-0.008,0.773,0.202,0.773,0.804
		c-0.016,16.188-0.015,32.376,0,48.564c0,0.571-0.109,0.771-0.732,0.764c-3.136-0.035-6.272-0.035-9.408,0
		c-0.621,0.007-0.735-0.188-0.734-0.763C281.495,41.905,281.489,33.797,281.489,25.69"/>
	<path clip-path="url(#SVGID_2_)" fill="#09575A" d="M143.903,19.258c0.037-2.563-0.588-4.865-1.767-7.064
		c-4.118-7.683-10.927-10.899-19.252-10.918C82.222,1.186,41.559,1.235,0.896,1.236H0.896c-1.11,0-0.925,0.479-0.801,0.678
		l1.921,1.582c7.21,5.798,14.423,11.592,21.622,17.402c0.557,0.449,1.14,0.53,1.805,0.526c6.663-0.039,13.326-0.076,19.989-0.092
		c15.104-0.038,30.208-0.069,45.312-0.092c8.397-0.012,16.794,0.05,25.19-0.021c4.878-0.042,8.951,1.785,12.347,5.112
		c3.118,3.054,6.006,6.342,9.089,9.434c2.122,2.128,4.404,4.097,6.501,6.032c0-0.118,0-0.616,0-1.115
		C143.87,33.541,143.8,26.398,143.903,19.258"/>
	<path clip-path="url(#SVGID_2_)" fill="#18AA95" d="M140.956,46.25c-5.026-5.111-9.988-10.287-15.06-15.352
		c-2.856-2.853-6.067-5.124-10.392-5.122c-27.21,0.012-54.42,0.006-81.63,0.013l-3.19,0.038c-0.263,0.078-0.542,0.312,0.275,1.028
		c0.145,0.118,0.291,0.235,0.437,0.353c0.059,0.045,0.113,0.089,0.162,0.131c6.244,5.048,12.508,10.073,18.709,15.174
		c1.118,0.919,2.21,1.269,3.632,1.266c18.091-0.041,36.181-0.054,54.272-0.015c4.426,0.009,8.244,1.785,11.451,4.744
		c3.55,3.277,6.985,6.68,10.42,10.077c0.693,0.687,1.049,0.535,1.601-0.101c3.113-3.582,6.229-7.163,9.408-10.686
		C141.674,47.11,141.487,46.79,140.956,46.25"/>
	<path clip-path="url(#SVGID_2_)" fill="#09575A" d="M221.218,1.735c0.696-0.788,0.251-0.9,0.034-0.913
		c-10.117-0.005-20.233-0.002-30.349-0.02c-0.592-0.001-0.955,0.251-1.313,0.667c-1.806,2.098-3.629,4.182-5.449,6.269
		c-17.339,19.887-34.683,39.771-52.005,59.673c-0.593,0.683-1.175,0.972-2.085,0.968c-9.654-0.031-19.308-0.013-28.963-0.029
		c-0.81-0.002-1.489,0.181-2.18,0.624c-9.017,5.789-18.052,11.552-27.081,17.322c-1.138,0.728-2.268,1.468-3.72,2.408
		c0.621,0,0.828,0.002,1.034-0.001c8.177-0.12,16.353-0.257,24.53-0.356c10.514-0.129,21.027-0.222,31.541-0.344
		c6.317-0.072,12.633-0.181,18.95-0.243c0.659-0.007,1.107-0.183,1.553-0.69c3.796-4.322,7.627-8.612,11.439-12.92
		C176.271,52.545,195.385,30.94,214.5,9.334C216.705,6.843,218.912,4.343,221.218,1.735L221.218,1.735z M195.268,11.325
		c-1.668,0-3.029-1.287-3.062-2.895c-0.033-1.645,1.378-3.068,3.047-3.072c1.667-0.004,3.092,1.421,3.057,3.057
		C198.274,10.043,196.933,11.325,195.268,11.325"/>
	<path clip-path="url(#SVGID_2_)" fill="#FFFFFF" d="M276.415,0.641c-3.323,0.043-6.647,0.032-9.972,0.004
		c-0.5-0.005-0.734,0.129-0.899,0.599c-1.53,4.378-3.082,8.748-4.625,13.122c-2.218,6.289-4.436,12.579-6.648,18.87
		c-0.508,1.446-0.982,2.903-1.515,4.34l0.002,0.001c0,0-0.007,0.02-0.018,0.054c-0.075,0.226-0.374,1.109-0.659,1.717
		c-0.059,0.141-0.129,0.286-0.205,0.4c-0.002,0.004-0.002,0.007-0.004,0.011c-0.004,0.005-0.008,0.008-0.013,0.013
		c-0.028,0.041-0.058,0.074-0.088,0.101c-0.003,0.003-0.006,0.007-0.009,0.01c-0.008,0.006-0.016,0.017-0.023,0.023
		c-0.021,0.018-0.041,0.029-0.061,0.035c-0.069,0.043-0.14,0.062-0.209,0.068c-0.004,0.001-0.009,0.002-0.013,0.002
		c-0.21,0.015-0.393-0.097-0.393-0.097c-0.02-0.015-0.036-0.034-0.054-0.052c-0.128-0.126-0.185-0.281-0.185-0.281L237.118,0.668
		l-1.493-0.03l0.004,0.024c-2.902-0.009-5.804-0.019-8.706-0.029c-0.266,0-0.532,0-0.798,0c-0.747-0.025-0.368,0.486-0.286,0.72
		c1.173,3.344,2.402,6.667,3.558,10.016c1.053,3.049,2.145,6.085,3.201,9.132c0.712,2.056,1.52,4.096,2.268,6.146
		c2.141,5.867,4.165,11.777,6.266,17.659c0.929,2.604,2.709,4.547,5.225,5.591c2.701,1.122,5.594,1.228,8.433,0.515
		c2.881-0.724,5.184-2.258,6.458-5.109c1.227-2.743,2.106-5.611,3.138-8.422c2.179-5.944,4.23-11.934,6.353-17.898
		c2.078-5.841,4.178-11.676,6.278-17.509C277.244,0.845,277.167,0.631,276.415,0.641"/>
	<path clip-path="url(#SVGID_2_)" fill="#FFFFFF" d="M494.858,69.578c-0.902,0.025-1.809,0.03-2.711-0.003
		c-0.342-0.012-0.549,0.134-0.739,0.359c-0.913,1.074-1.833,2.142-2.731,3.229c-1.142,1.385-2.259,2.788-3.4,4.174
		c-0.945,1.148-1.91,2.284-2.883,3.443c-0.973-1.159-1.937-2.295-2.884-3.443c-1.141-1.386-2.258-2.789-3.4-4.174
		c-0.897-1.087-1.817-2.154-2.73-3.229c-0.191-0.226-0.398-0.371-0.74-0.359c-0.902,0.033-1.808,0.028-2.711,0.003
		c-0.377-0.01-0.495,0.095-0.494,0.484c0.012,6.062,0.011,12.124,0,18.187c0,0.339,0.09,0.469,0.383,0.484l-0.037,0.021h2.909
		l-0.01-0.011c0.357-0.04,0.452-0.249,0.448-0.731c-0.023-3.482,0.002-6.965,0.011-10.447v-1.227c0,0,0.177-0.283,0.342-0.07
		c0.005,0.006,0.011,0.012,0.016,0.018l8.313,10.046c0.122,0.126,0.332,0.264,0.586,0.225c0.253,0.039,0.463-0.099,0.585-0.225
		l8.313-10.046c0.005-0.006,0.01-0.012,0.015-0.018c0.165-0.213,0.342,0.07,0.342,0.07v1.227c0.01,3.482,0.034,6.965,0.012,10.447
		c-0.003,0.482,0.091,0.691,0.447,0.731l-0.01,0.011h2.909l-0.037-0.021c0.293-0.016,0.383-0.146,0.383-0.484
		c-0.011-6.063-0.012-12.125,0-18.187C495.354,69.672,495.235,69.568,494.858,69.578"/>
	<path clip-path="url(#SVGID_2_)" fill="#FFFFFF" d="M461.312,73.595c0.002-0.492-0.098-0.96-0.205-1.426
		c-0.425-1.206-1.591-2.583-4.709-2.583c-2.486,0-4.973,0.003-7.458,0.003c-2.486,0-4.974-0.003-7.459-0.003
		c-3.118,0-4.285,1.377-4.709,2.583c-0.107,0.466-0.206,0.934-0.204,1.426c0.014,3.563,0.019,7.127-0.005,10.689
		c-0.005,0.623,0.053,1.237,0.183,1.831c0.555,1.994,2.244,2.447,3.284,2.532h8.91h8.909c1.04-0.085,2.729-0.538,3.284-2.532
		c0.13-0.594,0.187-1.208,0.183-1.831C461.291,80.722,461.297,77.158,461.312,73.595 M456.689,84.422
		c0.003,0.519-0.131,0.66-0.652,0.652c-2.366-0.028-4.732-0.012-7.098-0.012c-2.366,0-4.733-0.017-7.099,0.012
		c-0.521,0.008-0.655-0.134-0.651-0.652c0.022-3.563,0.022-7.124-0.001-10.688c-0.003-0.521,0.136-0.652,0.653-0.65
		c2.366,0.01,4.731,0,7.098,0c2.364,0,4.73,0.01,7.096,0c0.519-0.002,0.658,0.129,0.654,0.65
		C456.665,77.298,456.665,80.86,456.689,84.422"/>
	<path clip-path="url(#SVGID_2_)" fill="#FFFFFF" d="M428.804,81.778l-0.027-0.005h-0.001l-4.104-0.792
		c0.003,0.97-0.006,2.472,0,3.441c0.005,0.52-0.13,0.659-0.651,0.653c-2.365-0.029-1.939-0.013-4.306-0.013h-0.001
		c-2.365,0-4.731-0.017-7.098,0.013c-0.521,0.006-0.655-0.134-0.652-0.653c0.024-3.563,0.024-7.125,0-10.687
		c-0.004-0.522,0.136-0.654,0.654-0.651c2.365,0.01,4.731,0,7.096,0c2.366,0,2.072,0.01,4.438,0
		c0.518-0.003,0.524,0.129,0.521,0.651c-0.004,0.596-0.001,1.401,0,2.112c0,0.057,0,0.106,0,0.16
		c0.02,0.213,0.141,0.554,0.752,0.457l3.503-0.528c0.386-0.062,0.477-0.407,0.496-0.633c0.001-0.572,0.032-1.251,0.004-1.71
		c-0.032-0.519-0.098-0.959-0.204-1.425c-0.327-1.172-0.701-2.584-4.709-2.584c-2.487,0-2.314,0.004-4.801,0.004
		c-2.485,0-4.972-0.003-7.458-0.004c-3.118,0-4.284,1.377-4.709,2.584c-0.107,0.466-0.207,0.935-0.204,1.425
		c0.014,3.564,0.02,7.127-0.005,10.69c-0.004,0.624,0.054,1.237,0.184,1.832c0.555,1.994,2.243,2.446,3.283,2.532h8.909h6.118
		c1.04-0.086,2.729-0.538,3.284-2.532c0.13-0.595,0.188-1.208,0.183-1.832c-0.003-0.45-0.004-1.173-0.005-1.778
		C429.293,81.923,428.908,81.8,428.804,81.778"/>
	<path clip-path="url(#SVGID_2_)" fill="#FFFFFF" d="M397.59,88.764h-3.079c-1.1,0-2-0.9-2-2v-3.079c0-1.1,0.9-2,2-2h3.079
		c1.1,0,2,0.9,2,2v3.079C399.59,87.864,398.689,88.764,397.59,88.764"/>
	<path clip-path="url(#SVGID_2_)" fill="#FFFFFF" d="M387.604,85.996c0.042-0.596-0.106-0.796-0.757-0.791
		c-4.517,0.033-9.032,0.019-13.549,0.016c-0.338-0.001-0.723,0.154-0.718-0.494c0.032-4.806,0.031-9.613,0.039-14.42v-0.001
		c0-0.72-0.571-0.735-0.571-0.735h-0.468c-1.017,0.015-2.033,0.033-3.049,0c-0.589-0.018-0.743,0.126-0.74,0.731
		c0.027,5.445,0.021,10.892,0.009,16.338c-0.001,0.241,0.003,0.48-0.017,0.726c0.063,0.608,0.36,1.379,1.466,1.379
		c0.009,0,0.014,0.001,0.021,0.001c5.902-0.021,11.804-0.017,17.707-0.003c0.394,0.001,0.597-0.055,0.626-0.391
		c0.005-0.06,0.007-0.126,0.001-0.205c-0.001-0.01,0-0.02-0.001-0.031V85.996z"/>
	<path clip-path="url(#SVGID_2_)" fill="#FFFFFF" d="M360.619,85.221h-2.162c-0.001,0-0.002,0.001-0.003,0.001
		c-4.198-0.003-8.396-0.008-12.593,0.017c-0.614,0.003-0.748-0.165-0.725-0.746c0.049-1.167,0.037-2.338,0.003-3.507
		c-0.014-0.467,0.146-0.564,0.581-0.56c1.957,0.021,3.913,0.014,5.87,0.008v-0.012c0.031,0.004,0.061,0.019,0.093,0.019h2.052
		c0.366,0,0.665-0.3,0.665-0.665v-2.052c0-0.365-0.299-0.665-0.665-0.665h-2.052c-0.034,0-0.065,0.015-0.099,0.02
		c-1.934,0.003-3.868-0.002-5.802,0.021c-0.535,0.006-0.666-0.153-0.645-0.662c0.041-0.902,0.063-1.81-0.005-2.709
		c-0.052-0.684,0.179-0.813,0.825-0.807c4.014,0.024,8.028,0.015,12.042,0.026v-0.004h2.399c0.364,0,0.664-0.299,0.664-0.664v-2.036
		c0-0.343-0.266-0.616-0.6-0.651h-2.464v-0.006c-5.636,0.002-11.272,0.006-16.909-0.015c-0.56-0.002-0.732,0.111-0.742,0.669
		c0,0.004-0.002,0.007-0.002,0.01v3.45c0,0.014,0.008,0.023,0.008,0.036c0.013,4.781,0.012,9.563-0.001,14.344
		c-0.002,0.499,0.097,0.667,0.639,0.665c6.182-0.021,12.363-0.019,18.545-0.02v-0.014h1.081c0.366,0,0.665-0.3,0.665-0.665v-2.161
		C361.284,85.52,360.985,85.221,360.619,85.221"/>
	<path clip-path="url(#SVGID_2_)" fill="#FFFFFF" d="M334.411,70.132c-0.059-0.407-0.39-0.521-0.634-0.546h-3.017
		c-0.571,0-0.872,0.24-1.025,0.442l-0.08,0.146l-0.07,0.126l-1.026,1.861c-0.01,0.019-0.02,0.036-0.029,0.055l-1.775,3.221
		c-0.042,0.112-0.103,0.214-0.172,0.312l-0.574,1.04c-0.023,0.053-0.055,0.101-0.082,0.15l-0.746,1.352
		c-0.08,0.173-0.167,0.342-0.273,0.498l-1.274,2.312c-0.319,0.579-0.662,1.145-1.009,1.709c-0.056,0.066-0.209,0.228-0.386,0.227
		c-0.177,0.001-0.329-0.16-0.386-0.227c-0.348-0.564-0.69-1.13-1.009-1.709l-1.273-2.312c-0.107-0.156-0.195-0.325-0.274-0.498
		l-0.746-1.352c-0.026-0.05-0.059-0.098-0.082-0.15l-0.574-1.04c-0.069-0.098-0.13-0.199-0.172-0.312l-1.774-3.221
		c-0.011-0.019-0.021-0.036-0.03-0.055L314.89,70.3l-0.069-0.126l-0.08-0.146c-0.154-0.202-0.454-0.442-1.026-0.442h-3.016
		c-0.244,0.025-0.576,0.139-0.634,0.546c-0.019,0.169,0.02,0.379,0.183,0.651h0.001l4.224,7.039c1.26,2.134,2.497,4.282,3.741,6.426
		c0.438,0.754,0.858,1.519,1.286,2.278c0.229,0.416,0.461,0.833,0.692,1.249c0.41,0.741,0.924,0.891,1.201,0.915h0.845h0.845
		c0.277-0.024,0.791-0.174,1.202-0.915c0.23-0.416,0.461-0.833,0.691-1.249c0.429-0.76,0.849-1.524,1.286-2.278
		c1.243-2.144,2.481-4.292,3.741-6.426l4.224-7.039C334.391,70.511,334.429,70.301,334.411,70.132"/>
	<path clip-path="url(#SVGID_2_)" fill="#FFFFFF" d="M307.433,88.066c-0.036-0.063-0.074-0.126-0.114-0.193
		c-0.001-0.003-0.002-0.005-0.002-0.007c-0.058-0.095-0.125-0.209-0.199-0.332c-0.659-1.098-3.622-6.045-3.925-6.551
		c-0.248-0.416-0.499-0.834-0.751-1.257c-0.008-0.013-0.017-0.024-0.022-0.037c-0.138-0.23-0.275-0.461-0.413-0.691
		c-0.257-0.383-0.488-0.781-0.708-1.186c-1.037-1.738-2.023-3.396-2.794-4.699c-0.085-0.09-0.14-0.198-0.185-0.313
		c-0.089-0.15-0.175-0.297-0.257-0.436c-0.06-0.057-0.097-0.123-0.116-0.198c-0.292-0.496-0.529-0.902-0.699-1.199
		c-0.112-0.144-0.195-0.313-0.272-0.485c-0.587-1.139-2.03-0.895-2.03-0.895l-0.004-0.022c-0.177,0.001-0.354,0.005-0.529,0.007
		c-0.176-0.002-0.354-0.006-0.529-0.007l-0.004,0.022c0,0-1.444-0.244-2.031,0.895c-0.076,0.173-0.159,0.342-0.271,0.485
		c-0.17,0.297-0.407,0.703-0.699,1.199c-0.02,0.075-0.057,0.142-0.116,0.198c-0.082,0.139-0.168,0.285-0.257,0.436
		c-0.045,0.115-0.1,0.224-0.185,0.313c-0.771,1.303-1.757,2.961-2.794,4.699c-0.22,0.404-0.451,0.803-0.708,1.186
		c-0.138,0.23-0.275,0.461-0.413,0.691c-0.006,0.013-0.016,0.024-0.022,0.037c-0.252,0.423-0.503,0.841-0.751,1.257
		c-0.303,0.506-3.266,5.453-3.925,6.551c-0.074,0.123-0.142,0.237-0.199,0.332c0,0.002-0.001,0.004-0.002,0.007
		c-0.04,0.067-0.078,0.131-0.115,0.193c-0.366,0.616-0.066,0.686,0.047,0.691c1.225-0.012,2.45-0.023,3.676-0.035
		c0.014,0,0.026-0.001,0.041-0.001c0.12-0.006,0.519-0.084,0.986-0.86l1.829-3.033c0.006-0.008,0.011-0.019,0.017-0.025l0.002-0.004
		v0.001c0.156-0.188,0.392-0.228,0.697-0.226c1.909,0.009,3.818,0.014,5.728,0.015c1.909-0.001,3.818-0.006,5.727-0.015
		c0.307-0.002,0.542,0.037,0.698,0.226v-0.001l0.002,0.004c0.006,0.007,0.01,0.018,0.017,0.025l1.828,3.033
		c0.469,0.776,0.867,0.854,0.987,0.86c0.014,0,0.027,0.001,0.041,0.001c1.226,0.012,2.451,0.023,3.676,0.035
		C307.5,88.751,307.8,88.682,307.433,88.066 M294.411,81.068h-4.31c1.426-2.645,2.828-5.246,4.31-7.994
		c1.481,2.748,2.884,5.35,4.31,7.994H294.411z"/>
	<path clip-path="url(#SVGID_2_)" fill="#FFFFFF" d="M279.63,88.511L279.63,88.511l-7.579-6.341
		c-0.11-0.092-0.166-0.167-0.203-0.233l-0.013-0.01c0,0-0.019-0.034-0.03-0.078c0-0.001,0-0.002-0.001-0.003
		c-0.019-0.073-0.013-0.179,0.121-0.242c0.001,0,0.003-0.001,0.004-0.002c0.032-0.015,0.07-0.027,0.119-0.036l0.003-0.001h0.005
		c0.021-0.003,0.046-0.006,0.071-0.008c0.017-0.002,0.034-0.005,0.054-0.008c0.003,0,0.005-0.001,0.009-0.001h0.001h1.101
		c0.169,0,0.33-0.005,0.486-0.015c0.002,0,0.005,0,0.008-0.001c0.061-0.004,0.114-0.011,0.172-0.017
		c1.051-0.124,3.653-0.82,3.701-4.695c0.017-0.685,0.027-1.479,0.025-2.277c-0.003-0.193-0.094-2.449-1.936-3.839
		c-1.121-0.673-2.503-0.957-3.558-1.072c-0.407-0.005-0.71-0.029-0.943-0.066c-0.057-0.002-0.118-0.005-0.17-0.006h-13.521h-0.319
		h-0.535c-0.166,0.032-0.342,0.136-0.404,0.409c-0.007,6.068-0.008,12.138-0.027,18.205c-0.001,0.359,0.086,0.51,0.339,0.552v0.003
		h0.043c0.06,0.007,0.115,0.016,0.192,0.014c0.293-0.008,0.587-0.009,0.881-0.014h1.577c0.322,0.005,0.646,0.005,0.97,0.017
		c0.115,0.004,0.207-0.002,0.286-0.017c0.291-0.054,0.367-0.242,0.361-0.644c-0.03-1.967,0.009-3.934-0.026-5.9
		c-0.01-0.537,0.156-0.661,0.663-0.645c1.115,0.038,2.231,0.018,3.349,0.008c0.25-0.002,0.438,0.056,0.633,0.233
		c2.174,1.981,4.329,3.981,6.564,5.891c0.458,0.393,0.791,1.07,1.565,1.064c2.072-0.018,4.146-0.016,6.219-0.022L279.63,88.511z
		 M266.758,78.202c-1.729,0-3.457-0.014-5.186,0.01c-0.476,0.006-0.701-0.055-0.681-0.626c0.049-1.354,0.031-2.712,0.007-4.067
		c-0.007-0.421,0.066-0.597,0.549-0.594c3.536,0.022,7.073-0.011,10.609,0.027c0.99,0.011,1.648,0.345,1.618,1.678
		c-0.017,0.638-0.016,1.276-0.001,1.914c0.026,1.247-0.607,1.622-1.651,1.647C270.269,78.232,268.513,78.202,266.758,78.202"/>
	<path clip-path="url(#SVGID_2_)" fill="#FFFFFF" d="M252.089,65.284h-1.878c0-0.003,0.001-0.006,0.001-0.009
		c-1.592,0.008-3.184,0.004-4.776,0.004c-5.479,0-10.958,0.002-16.436-0.009c0.002,0.005,0.003,0.01,0.005,0.014h-3.144
		c-0.213,0-0.388,0.175-0.388,0.389v3.351c0,0.213,0.175,0.388,0.388,0.388h3.209v0.021c2.123-0.005,4.245,0.001,6.368-0.018
		c0.557-0.004,0.76,0.078,0.756,0.713c-0.028,5.405-0.018,10.81-0.02,16.213h0.004v1.992c0,0.214,0.175,0.388,0.388,0.388h4.65
		c0.213,0,0.388-0.174,0.388-0.388v-1.992h0.009c-0.014-5.396-0.004-10.795-0.027-16.192c-0.002-0.595,0.137-0.741,0.734-0.736
		c2.63,0.021,5.259,0.012,7.889,0.004v-0.004h1.88c0.214,0,0.39-0.175,0.39-0.388v-3.351
		C252.479,65.458,252.303,65.284,252.089,65.284"/>
	<path clip-path="url(#SVGID_2_)" fill="#71A0B9" d="M125.671,61.708c0.045-0.011,0.095-0.023,0.142-0.042
		c0.019-0.011,0.04-0.02,0.054-0.031c0.007-0.005,0.015-0.01,0.02-0.017c0.112-0.114-0.001-0.279-0.001-0.279l-0.437-0.459
		l0.001-0.001c-3.777-3.687-7.526-7.402-11.363-11.024c-1.437-1.355-3.256-2.091-5.278-2.184
		c-14.039,0.005-28.077,0.01-42.115,0.025v0.005h-5.312c-0.701,0.001-1.401,0.001-2.102,0.002c-0.004,0-0.009-0.001-0.013-0.001
		h-0.8c0,0-0.846,0.133-0.273,0.732c5.125,4.119,10.264,8.221,15.355,12.382c0.835,0.684,1.649,0.926,2.695,0.924
		c16.131-0.024,32.262-0.017,48.393-0.017h0.683C125.475,61.733,125.582,61.723,125.671,61.708"/>
</g>
</svg>
